<svg width="12" height="20" viewBox="0 0 12 20" fill="none" xmlns="http://www.w3.org/2000/svg">
<path d="M0 10.2441C0.00716146 10.0221 0.0501302 9.81803 0.128906 9.63184C0.214844 9.44564 0.34375 9.2666 0.515625 9.09473L8.78711 1.00586C9.05925 0.733724 9.39225 0.597656 9.78613 0.597656C10.0583 0.597656 10.3018 0.662109 10.5166 0.791016C10.7386 0.919922 10.9141 1.09538 11.043 1.31738C11.179 1.53223 11.2471 1.77214 11.2471 2.03711C11.2471 2.43815 11.0967 2.78906 10.7959 3.08984L3.4375 10.2441L10.7959 17.3984C11.0967 17.7064 11.2471 18.0573 11.2471 18.4512C11.2471 18.7233 11.179 18.9668 11.043 19.1816C10.9141 19.3965 10.7386 19.5684 10.5166 19.6973C10.3018 19.8262 10.0583 19.8906 9.78613 19.8906C9.39225 19.8906 9.05925 19.7546 8.78711 19.4824L0.515625 11.3936C0.336589 11.2217 0.204102 11.0426 0.118164 10.8564C0.039388 10.6631 0 10.459 0 10.2441Z" fill="black"/>
</svg>
