<svg width="24" height="24" viewBox="0 0 24 24" fill="none" xmlns="http://www.w3.org/2000/svg">
<path d="M16.115 2C15.5237 2 15.04 2.44848 15.04 3.03973V3.29C15.04 3.54714 15.2485 3.72 15.5061 3.72H18.4447C18.7019 3.72 18.91 3.54714 18.91 3.29V3.03973C18.91 2.44848 18.4262 2 17.835 2H16.115ZM8.5732 4.58C4.91433 4.58 3 7.02282 3 9.43598C3 11.6531 4.08907 19.51 4.13379 19.8274C4.22237 20.7016 4.91443 21.4312 5.82775 21.6036C6.0492 21.6402 6.65754 21.683 7.30168 21.717C6.18497 20.3384 5.58 17.8623 5.58 16.19C5.58 13.3 6.56374 11.3565 7.3042 10.2179C6.93999 10.0725 6.54786 9.95018 6.15613 9.83322C5.55628 9.65391 5.05789 9.49158 4.68809 9.30496C4.97533 8.758 5.70109 7.77649 7.27145 7.61352C7.308 7.85604 7.32576 8.1245 7.30168 8.41389C7.28147 8.65039 7.45739 8.85854 7.69389 8.87832C7.93727 8.90025 8.13897 8.7222 8.15832 8.48527C8.21938 7.76244 8.08108 7.13527 7.9366 6.70312C8.6074 6.74698 9.6425 7.05855 9.88588 8.52055C9.92114 8.73082 10.1028 8.88 10.3092 8.88C10.3328 8.88 10.3565 8.87842 10.3805 8.87412C10.6149 8.83499 10.7733 8.6138 10.7341 8.37945C10.6868 8.09651 10.6106 7.85432 10.5225 7.63115C11.7824 7.801 12.2233 8.46439 12.3769 8.90771C12.3382 8.91545 12.2992 8.91946 12.2635 8.93795C11.7986 9.17746 11.1825 9.41145 10.5594 9.49057C8.5896 9.7404 8.07604 10.6071 8.07518 10.6067C7.36869 11.6684 6.44 13.447 6.44 16.19C6.44 18.2906 7.43165 21.1992 8.6765 21.7741C8.82442 21.778 8.95471 21.78 9.05275 21.78C9.9192 21.78 10.9465 21.6712 11.4337 21.5675C11.6874 21.5172 11.9304 21.4138 12.1484 21.2702C12.0736 21.0479 12.03 20.8013 12.03 20.5278C12.03 19.8918 12.2702 19.3266 12.5028 18.7809C12.7015 18.3131 12.89 17.8722 12.89 17.48C12.89 17.1382 12.7616 16.6574 12.6129 16.101C12.3531 15.1275 12.03 13.9162 12.03 12.3015C12.03 9.565 13.6464 7.29307 13.75 7.0441C13.2581 6.15701 11.7543 4.58 8.5732 4.58ZM15.4372 4.58C15.4372 6.37138 14.6134 7.17043 14.002 8.24844C13.3359 9.42363 12.89 10.5652 12.89 12.3015C12.89 13.8035 13.1975 14.9543 13.4443 15.8793C13.6081 16.4942 13.75 17.0251 13.75 17.48C13.75 18.0476 13.5184 18.5918 13.294 19.1185C13.0863 19.6062 12.89 20.0673 12.89 20.5278C12.89 21.4467 13.6044 21.78 14.0843 21.78H19.8657C20.3461 21.78 21.06 21.4467 21.06 20.5278C21.06 20.0673 20.8637 19.6062 20.656 19.1185C20.4316 18.5918 20.2 18.0476 20.2 17.48C20.2 17.0251 20.3419 16.4946 20.5057 15.8793C20.7525 14.9543 21.06 13.8035 21.06 12.3015C21.06 10.5652 20.6339 9.41288 19.948 8.24844C19.2781 7.11195 18.5119 6.51156 18.5119 4.58H15.4372ZM16.1839 7.16C16.2397 7.15887 16.2962 7.16841 16.351 7.19023C16.5716 7.27881 16.6793 7.52898 16.5912 7.74957L15.9663 9.31H15.04L15.7917 7.43043C15.8578 7.26499 16.0165 7.16339 16.1839 7.16ZM17.7661 7.16C17.9334 7.16345 18.0922 7.26499 18.1583 7.43043L18.91 9.31H17.9837L17.3596 7.74957C17.2715 7.52855 17.3784 7.27881 17.599 7.19023C17.6536 7.16852 17.7104 7.15885 17.7661 7.16ZM19.8649 10.1599C20.0666 10.8045 20.2 11.5034 20.2 12.3015C20.2 12.9491 20.1383 13.5197 20.0488 14.04H13.9012C13.8117 13.5197 13.75 12.9491 13.75 12.3015C13.75 11.5077 13.8826 10.812 14.0826 10.17L19.8649 10.1599ZM9.235 14.04C9.59104 14.04 9.88 14.329 9.88 14.685C9.88 15.041 9.59104 15.33 9.235 15.33C8.87896 15.33 8.59 15.041 8.59 14.685C8.59 14.329 8.87896 14.04 9.235 14.04ZM14.9636 14.9H15.8387C15.8993 15.2173 15.9746 15.5552 16.0512 15.8893C16.2004 16.5421 16.33 17.1059 16.33 17.48C16.33 18.2243 16.0511 18.8688 15.8043 19.4368C15.6327 19.8329 15.47 20.2066 15.47 20.49C15.47 20.6259 15.5102 20.7803 15.5683 20.92H14.6864C14.6417 20.7914 14.61 20.6525 14.61 20.49C14.61 20.0278 14.8067 19.5749 15.0148 19.0942C15.2384 18.579 15.47 18.0459 15.47 17.48C15.47 17.2031 15.3394 16.6329 15.213 16.0817C15.1218 15.6839 15.0302 15.2793 14.9636 14.9ZM18.1113 14.9H18.9864C18.9193 15.2793 18.8277 15.6839 18.737 16.0817C18.6106 16.6329 18.48 17.2031 18.48 17.48C18.48 18.0459 18.7116 18.579 18.9352 19.0942C19.1433 19.5749 19.34 20.0278 19.34 20.49C19.34 20.6525 19.3079 20.7914 19.2636 20.92H18.3817C18.4394 20.7798 18.48 20.6255 18.48 20.49C18.48 20.2066 18.3173 19.8329 18.1457 19.4368C17.8989 18.8688 17.62 18.2243 17.62 17.48C17.62 17.1059 17.7496 16.5421 17.8988 15.8893C17.9754 15.5552 18.0507 15.2173 18.1113 14.9ZM10.31 15.76C10.5474 15.76 10.74 15.9526 10.74 16.19C10.74 16.4274 10.5474 16.62 10.31 16.62C10.0726 16.62 9.88 16.4274 9.88 16.19C9.88 15.9526 10.0726 15.76 10.31 15.76Z" fill="black"/>
</svg>
