<svg width="24" height="24" viewBox="0 0 24 24" fill="none" xmlns="http://www.w3.org/2000/svg">
<path d="M21.8736 9.55737C21.5969 9.13968 21.0336 9.02502 20.615 9.29984L20.4057 9.4418L18.3109 4.55146C18.168 4.21658 17.8395 4 17.4755 4H6.80124C6.44634 4 6.12784 4.2002 5.98224 4.5278L3.66174 9.4691L3.41058 9.3144C2.99198 9.03776 2.42869 9.15151 2.15114 9.57011C1.87541 9.98689 1.98734 10.5484 2.4023 10.8268L2.94284 11.1799C2.93374 11.2072 2.91554 11.2436 2.91554 11.28V19.47C2.91554 19.9705 3.32504 20.38 3.82554 20.38H4.73099C5.23513 20.38 5.64372 19.9696 5.64099 19.4655L5.63644 18.56H18.3946L18.3901 19.4655C18.3874 19.9696 18.7959 20.38 19.3001 20.38H20.2055C20.706 20.38 21.1155 19.9705 21.1155 19.47V11.28C21.1155 11.2436 21.0973 11.2072 21.0973 11.1708L21.6215 10.8159C22.0374 10.5374 22.1502 9.97506 21.8736 9.55737ZM7.46554 14.92C6.96504 14.92 6.55554 14.5105 6.55554 14.01C6.55554 13.5095 6.96504 13.1 7.46554 13.1C7.96604 13.1 8.37554 13.5095 8.37554 14.01C8.37554 14.5105 7.96604 14.92 7.46554 14.92ZM16.5655 14.92C16.065 14.92 15.6555 14.5105 15.6555 14.01C15.6555 13.5095 16.065 13.1 16.5655 13.1C17.066 13.1 17.4755 13.5095 17.4755 14.01C17.4755 14.5105 17.066 14.92 16.5655 14.92ZM5.25424 10.37L7.38364 5.82H16.8749L18.8223 10.37H5.25424Z" fill="black"/>
</svg>
