<svg width="20" height="20" viewBox="0 0 20 20" fill="none" xmlns="http://www.w3.org/2000/svg">
<path d="M20 10C20 4.4775 15.5225 -1.95718e-07 10 -4.37114e-07C4.4775 -6.7851e-07 -1.95718e-07 4.4775 -4.37114e-07 10C-6.7851e-07 15.5225 4.4775 20 10 20C15.5225 20 20 15.5225 20 10ZM18.3333 10C18.3333 14.6025 14.6025 18.3333 10 18.3333C5.3975 18.3333 1.66667 14.6025 1.66667 10C1.66667 5.3975 5.3975 1.66667 10 1.66667C14.6025 1.66667 18.3333 5.3975 18.3333 10ZM14.1667 9.16667C14.1667 8.95333 14.085 8.73997 13.9225 8.57747L10.5892 5.24414C10.2634 4.91831 9.73664 4.91831 9.41081 5.24414L6.07747 8.57747C5.75164 8.90331 5.75164 9.43003 6.07747 9.75586C6.40331 10.0817 6.93003 10.0817 7.25586 9.75586L9.16667 7.84505L9.16667 14.1667C9.16667 14.6267 9.53917 15 10 15C10.4608 15 10.8333 14.6267 10.8333 14.1667L10.8333 7.84505L12.7441 9.75586C13.07 10.0817 13.5967 10.0817 13.9225 9.75586C14.085 9.59336 14.1667 9.38 14.1667 9.16667Z" fill="#0F0F11"/>
</svg>
