<svg width="24" height="24" viewBox="0 0 24 24" fill="none" xmlns="http://www.w3.org/2000/svg">
<g clip-path="url(#clip0_4_3583)">
<path d="M2.06006 5.96509V18.0351H21.9401V5.96509H2.06006ZM4.90006 7.38509H19.1001C19.1001 8.16964 19.7355 8.80509 20.5201 8.80509V15.1951C19.7355 15.1951 19.1001 15.8305 19.1001 16.6151H4.90006C4.90006 15.8305 4.26461 15.1951 3.48006 15.1951V8.80509C4.26461 8.80509 4.90006 8.16964 4.90006 7.38509ZM12.0001 8.80509C10.4302 8.80509 9.16006 10.2364 9.16006 12.0001C9.16006 13.7637 10.4302 15.1951 12.0001 15.1951C13.5699 15.1951 14.8401 13.7637 14.8401 12.0001C14.8401 10.2364 13.5699 8.80509 12.0001 8.80509ZM12.0001 10.2251C12.7825 10.2251 13.4201 11.021 13.4201 12.0001C13.4201 12.9792 12.7825 13.7751 12.0001 13.7751C11.2176 13.7751 10.5801 12.9792 10.5801 12.0001C10.5801 11.021 11.2176 10.2251 12.0001 10.2251ZM6.67506 10.9351C6.08718 10.9351 5.61006 11.4122 5.61006 12.0001C5.61006 12.588 6.08718 13.0651 6.67506 13.0651C7.26294 13.0651 7.74006 12.588 7.74006 12.0001C7.74006 11.4122 7.26294 10.9351 6.67506 10.9351ZM17.3251 10.9351C16.7372 10.9351 16.2601 11.4122 16.2601 12.0001C16.2601 12.588 16.7372 13.0651 17.3251 13.0651C17.9129 13.0651 18.3901 12.588 18.3901 12.0001C18.3901 11.4122 17.9129 10.9351 17.3251 10.9351Z" fill="black"/>
<rect x="10" y="5" width="4" height="2" fill="black"/>
<path d="M12 0L16 5H8L12 0Z" fill="black"/>
</g>
<defs>
<clipPath id="clip0_4_3583">
<rect width="24" height="24" fill="white"/>
</clipPath>
</defs>
</svg>
