<svg width="20" height="20" viewBox="0 0 20 20" fill="none" xmlns="http://www.w3.org/2000/svg">
<path d="M20 10C20 15.5225 15.5225 20 10 20C4.4775 20 -1.95718e-07 15.5225 -4.37114e-07 10C-6.7851e-07 4.4775 4.4775 6.7851e-07 10 4.37114e-07C15.5225 1.95718e-07 20 4.4775 20 10ZM18.3333 10C18.3333 5.3975 14.6025 1.66667 10 1.66667C5.3975 1.66667 1.66667 5.3975 1.66667 10C1.66667 14.6025 5.3975 18.3333 10 18.3333C14.6025 18.3333 18.3333 14.6025 18.3333 10ZM14.1667 10.8333C14.1667 11.0467 14.085 11.26 13.9225 11.4225L10.5892 14.7559C10.2634 15.0817 9.73664 15.0817 9.41081 14.7559L6.07747 11.4225C5.75164 11.0967 5.75164 10.57 6.07747 10.2441C6.40331 9.91831 6.93003 9.91831 7.25586 10.2441L9.16667 12.1549L9.16667 5.83333C9.16667 5.37333 9.53917 5 10 5C10.4608 5 10.8333 5.37333 10.8333 5.83333L10.8333 12.1549L12.7441 10.2441C13.07 9.91831 13.5967 9.91831 13.9225 10.2441C14.085 10.4066 14.1667 10.62 14.1667 10.8333Z" fill="#0F0F11"/>
</svg>
