<svg width="24" height="24" viewBox="0 0 24 24" fill="none" xmlns="http://www.w3.org/2000/svg">
<g clip-path="url(#clip0_6_3643)">
<path d="M4.7199 1.98999C3.71435 1.98999 2.8999 2.80444 2.8999 3.80999V16.55C2.8999 17.5555 3.71435 18.37 4.7199 18.37V7.44999C4.7199 5.44253 6.35244 3.80999 8.3599 3.80999H17.4599C17.4599 2.80444 16.6455 1.98999 15.6399 1.98999H4.7199ZM8.3599 5.62999C7.35435 5.62999 6.5399 6.44444 6.5399 7.44999V20.19C6.5399 21.1955 7.35435 22.01 8.3599 22.01H19.2799C20.2855 22.01 21.0999 21.1955 21.0999 20.19V7.44999C21.0999 6.44444 20.2855 5.62999 19.2799 5.62999H8.3599ZM10.1799 9.26999H17.4599C17.9622 9.26999 18.3699 9.67767 18.3699 10.18C18.3699 10.6823 17.9622 11.09 17.4599 11.09H10.1799C9.67758 11.09 9.2699 10.6823 9.2699 10.18C9.2699 9.67767 9.67758 9.26999 10.1799 9.26999ZM10.1799 12.91H17.4599C17.9622 12.91 18.3699 13.3177 18.3699 13.82C18.3699 14.3223 17.9622 14.73 17.4599 14.73H10.1799C9.67758 14.73 9.2699 14.3223 9.2699 13.82C9.2699 13.3177 9.67758 12.91 10.1799 12.91ZM10.1799 16.55H17.4599C17.9622 16.55 18.3699 16.9577 18.3699 17.46C18.3699 17.9623 17.9622 18.37 17.4599 18.37H10.1799C9.67758 18.37 9.2699 17.9623 9.2699 17.46C9.2699 16.9577 9.67758 16.55 10.1799 16.55Z" fill="black"/>
</g>
<defs>
<clipPath id="clip0_6_3643">
<rect width="24" height="24" fill="white"/>
</clipPath>
</defs>
</svg>
