<svg width="22" height="22" viewBox="0 0 22 22" fill="none" xmlns="http://www.w3.org/2000/svg">
<g clip-path="url(#clip0_6_3629)">
<path d="M11 1.52975H3.72094C3.01299 1.52087 2.33098 1.7959 1.82723 2.29341C1.32349 2.79091 1.03998 3.46945 1.04004 4.17745V8.15315C1.04004 9.61543 2.22545 10.8009 3.68774 10.8009V13.0419C3.68411 13.2225 3.79131 13.387 3.95804 13.4566C4.12477 13.5262 4.31712 13.4868 4.44304 13.3573L6.99944 10.8009H10.7344C11.427 9.81055 12.4191 9.06866 13.5647 8.68435C13.6009 8.50953 13.6204 8.33166 13.6228 8.15315V4.17745C13.6229 2.72483 12.4526 1.54341 11 1.52975ZM4.05294 7.11565C3.5212 7.11565 3.09014 6.68459 3.09014 6.15285C3.09014 5.62111 3.5212 5.19005 4.05294 5.19005C4.58468 5.19005 5.01574 5.62111 5.01574 6.15285C5.01574 6.68459 4.58468 7.11565 4.05294 7.11565ZM7.37294 7.11565C6.98614 7.11901 6.63556 6.8886 6.4852 6.53221C6.33484 6.17582 6.41444 5.76391 6.68676 5.48921C6.95908 5.2145 7.37028 5.1313 7.72797 5.27854C8.08566 5.42578 8.31912 5.77434 8.31914 6.16115C8.32138 6.41498 8.22153 6.65906 8.04204 6.83855C7.86255 7.01804 7.61847 7.11789 7.36464 7.11565H7.37294ZM10.6929 7.11565C10.1658 7.11565 9.73844 6.68831 9.73844 6.16115C9.73844 5.63399 10.1658 5.20665 10.6929 5.20665C11.2201 5.20665 11.6474 5.63399 11.6474 6.16115C11.6498 6.41791 11.5477 6.66459 11.3645 6.84459C11.1814 7.02458 10.933 7.12242 10.6763 7.11565H10.6929Z" fill="black"/>
<path d="M19.7564 13.7141C19.6138 11.3984 17.6941 9.59326 15.374 9.59326C13.0539 9.59326 11.1342 11.3984 10.9916 13.7141C10.2954 13.9718 9.83011 14.6319 9.82129 15.3741V16.7436C9.82128 17.7305 10.6189 18.5318 11.6058 18.5364H11.9461C12.1479 18.5364 12.3412 18.4557 12.4831 18.3123C12.625 18.1688 12.7036 17.9746 12.7014 17.7728V14.3698C12.705 14.0662 12.5246 13.7907 12.2449 13.6726C12.4281 12.0854 13.7721 10.8876 15.3698 10.8876C16.9676 10.8876 18.3116 12.0854 18.4948 13.6726C18.218 13.7942 18.0391 14.0675 18.0383 14.3698V17.7894C18.0376 18.1014 18.2289 18.3818 18.5197 18.4949C18.5107 18.901 18.1788 19.2254 17.7727 19.2253H16.7435C16.3997 19.2253 16.121 19.504 16.121 19.8478C16.121 20.1916 16.3997 20.4703 16.7435 20.4703H17.7727C18.871 20.4658 19.7601 19.5766 19.7647 18.4783V18.47C20.4606 18.2136 20.9239 17.5517 20.9267 16.81V15.3907C20.9247 14.6424 20.4582 13.974 19.7564 13.7141Z" fill="black"/>
</g>
<defs>
<clipPath id="clip0_6_3629">
<rect width="24" height="24" fill="white" transform="translate(-1 -1)"/>
</clipPath>
</defs>
</svg>
