<svg width="27" height="27" viewBox="0 0 27 27" fill="none" xmlns="http://www.w3.org/2000/svg">
<path d="M25.221 8.23929L14.158 0.401266C13.482 -0.0536772 12.585 -0.0536772 11.922 0.401266L0.846039 8.25229C0.339039 8.61624 0.0400391 9.21416 0.0400391 9.83809V24.1103C0.0400391 25.1892 0.911039 26.0601 1.99004 26.0601H8.49004C9.56904 26.0601 10.44 25.1892 10.44 24.1103V17.5981C10.44 17.2342 10.726 16.9482 11.09 16.9482L14.99 16.9612C15.367 16.9612 15.64 17.2472 15.64 17.6111V24.1103C15.64 25.1892 16.511 26.0601 17.59 26.0601H24.09C25.169 26.0601 26.04 25.1892 26.04 24.1103V9.83809C26.04 9.21416 25.741 8.61624 25.221 8.23929Z" fill="white"/>
</svg>
