<svg width="27" height="22" viewBox="0 0 27 22" fill="none" xmlns="http://www.w3.org/2000/svg">
<path d="M22.9387 0.112793C21.0489 0.112793 19.5177 1.64405 19.5177 3.53383V18.5864C19.5177 20.4762 21.0489 22.0074 22.9387 22.0074C24.8285 22.0074 26.3598 20.4762 26.3598 18.5864V3.53383C26.3598 1.64405 24.8285 0.112793 22.9387 0.112793ZM13.3598 5.58646C11.47 5.58646 9.93877 7.11771 9.93877 9.00749V18.5864C9.93877 20.4762 11.47 22.0074 13.3598 22.0074C15.2496 22.0074 16.7809 20.4762 16.7809 18.5864V9.00749C16.7809 7.11771 15.2496 5.58646 13.3598 5.58646ZM3.7809 11.0601C1.89112 11.0601 0.359863 12.5914 0.359863 14.4812V18.5864C0.359863 20.4762 1.89112 22.0074 3.7809 22.0074C5.67069 22.0074 7.20194 20.4762 7.20194 18.5864V14.4812C7.20194 12.5914 5.67069 11.0601 3.7809 11.0601Z" fill="#FFE55C"/>
</svg>
