<svg width="28" height="28" viewBox="0 0 28 28" fill="none" xmlns="http://www.w3.org/2000/svg">
<path d="M13.9375 27.125C21.1518 27.125 27 21.2768 27 14.0625C27 6.84828 21.1518 1 13.9375 1C6.72328 1 0.875 6.84828 0.875 14.0625C0.875 21.2768 6.72328 27.125 13.9375 27.125Z" stroke="white" stroke-width="1.43" stroke-linecap="round" stroke-linejoin="round"/>
<path d="M5.88477 17.2087L8.26994 19.0259L10.0406 8.8448C10.12 8.38781 10.5167 8.0542 10.9805 8.0542H19.9006" stroke="white" stroke-width="1.43" stroke-linecap="round" stroke-linejoin="round"/>
<path d="M12.5674 12.4021C12.6732 10.9216 13.9866 9.76929 16.2609 9.76929C18.3853 9.76929 19.8751 10.8447 19.8751 12.2694C19.8751 13.3029 19.2228 14.0362 18.0151 14.6507C16.8603 15.2373 16.5342 15.6354 16.5342 16.4106V16.9343H15.3618V16.2779C15.3529 15.3561 15.8642 14.7694 17.0983 14.1339C18.2002 13.5543 18.6322 13.0655 18.6322 12.3113C18.6322 11.3196 17.636 10.6003 16.2168 10.6003C14.8064 10.6003 13.8279 11.2987 13.7133 12.4021H12.5674ZM15.9612 20.0001C15.5028 20.0001 15.1414 19.7137 15.1414 19.3506C15.1414 18.9805 15.5028 18.6941 15.9612 18.6941C16.4284 18.6941 16.7898 18.9805 16.7898 19.3506C16.7898 19.7137 16.4284 20.0001 15.9612 20.0001Z" fill="white"/>
</svg>
