<svg width="28" height="29" viewBox="0 0 28 29" fill="none" xmlns="http://www.w3.org/2000/svg">
<path fill-rule="evenodd" clip-rule="evenodd" d="M16.3537 1.53986C16.4385 1.22904 16.7591 1.0458 17.07 1.13056C18.414 1.49712 19.7464 2.10438 20.9499 2.82647C21.1256 2.93189 21.2331 3.12177 21.2331 3.32668C21.2331 3.5599 21.1943 3.75366 21.1659 3.89583L21.1635 3.90774C21.1338 4.05623 21.1165 4.14981 21.1165 4.26001C21.1165 5.68784 22.2553 6.82668 23.6831 6.82668C23.8642 6.82668 24.0116 6.82623 24.1407 6.81449C24.2737 6.8024 24.3349 6.78196 24.3556 6.77159C24.6142 6.64228 24.9285 6.72194 25.0944 6.95882C25.9617 8.19787 26.4531 9.43472 26.8157 10.8852C26.8882 11.175 26.7299 11.4728 26.4492 11.5749C25.3667 11.9685 24.6165 12.9354 24.6165 14.06C24.6165 15.1645 25.3429 16.1322 26.6547 16.5358C26.9556 16.6284 27.1288 16.9431 27.0459 17.2468C26.6794 18.5909 26.0721 19.9233 25.35 21.1268C25.2446 21.3025 25.0547 21.41 24.8498 21.41C24.6166 21.41 24.4228 21.3712 24.2807 21.3427L24.2687 21.3403C24.1203 21.3107 24.0267 21.2933 23.9165 21.2933C22.4886 21.2933 21.3498 22.4322 21.3498 23.86C21.3498 24.0411 21.3503 24.1885 21.362 24.3176C21.3741 24.4506 21.3945 24.5117 21.4049 24.5325C21.5342 24.7911 21.4545 25.1054 21.2177 25.2712C19.9786 26.1386 18.7418 26.63 17.2913 26.9926C17.0014 27.0651 16.7037 26.9068 16.6016 26.626C16.208 25.5436 15.241 24.7933 14.1165 24.7933C12.9578 24.7933 11.9212 25.571 11.6459 26.5802C11.5612 26.891 11.2405 27.0742 10.9297 26.9895C9.58561 26.6229 8.25317 26.0156 7.04968 25.2936C6.87398 25.1881 6.76647 24.9982 6.76647 24.7933C6.76647 24.5601 6.80528 24.3664 6.83375 24.2242L6.83613 24.2123C6.86583 24.0638 6.88314 23.9702 6.88314 23.86C6.88314 22.4322 5.74431 21.2933 4.31647 21.2933C4.13541 21.2933 3.98802 21.2938 3.85887 21.3055C3.72592 21.3176 3.66475 21.3381 3.64401 21.3484C3.38539 21.4777 3.07107 21.3981 2.90525 21.1612C2.03792 19.9222 1.54651 18.6853 1.18389 17.2348C1.11143 16.945 1.26968 16.6472 1.55046 16.5451C2.63292 16.1515 3.38314 15.1846 3.38314 14.06C3.38314 12.9393 2.64339 11.9972 1.49166 11.7093C1.33948 11.6712 1.20904 11.5735 1.12977 11.4381C1.0505 11.3028 1.02909 11.1412 1.07036 10.9899C1.43692 9.64582 2.04418 8.31337 2.76627 7.10989C2.87169 6.93418 3.06157 6.82668 3.26647 6.82668C3.4997 6.82668 3.69346 6.86548 3.83563 6.89395L3.84754 6.89634C3.99602 6.92603 4.08961 6.94334 4.19981 6.94334C5.62764 6.94334 6.76647 5.80451 6.76647 4.37668C6.76647 4.19561 6.76603 4.04823 6.75429 3.91907C6.7422 3.78612 6.72176 3.72495 6.71139 3.70422C6.58208 3.4456 6.66174 3.13127 6.89862 2.96546C8.1442 2.09355 9.50076 1.60511 10.813 1.24723C11.1058 1.16737 11.411 1.32541 11.5147 1.61066C11.9051 2.68434 12.7499 3.32668 13.8831 3.32668C15.0418 3.32668 16.0785 2.54905 16.3537 1.53986ZM17.2704 2.40708C16.6707 3.65926 15.3196 4.49334 13.8831 4.49334C12.4109 4.49334 11.2597 3.72015 10.6369 2.51075C9.68172 2.79707 8.75868 3.16053 7.90335 3.69845C7.90866 3.73812 7.91281 3.7766 7.91616 3.81345C7.93316 4.00048 7.93315 4.19791 7.93314 4.36432V4.37668C7.93314 6.44884 6.27197 8.11001 4.19981 8.11001C3.96658 8.11001 3.77282 8.07121 3.63065 8.04273L3.61874 8.04035C3.60477 8.03756 3.59129 8.03487 3.57824 8.0323C3.07919 8.90785 2.6549 9.83771 2.35298 10.7705C3.68085 11.3329 4.54981 12.5854 4.54981 14.06C4.54981 15.5443 3.67352 16.7861 2.44156 17.4254C2.72607 18.4315 3.08982 19.3026 3.63635 20.1567C3.67669 20.1513 3.71581 20.1471 3.75325 20.1437C3.94027 20.1267 4.1377 20.1267 4.3041 20.1267H4.31647C6.38864 20.1267 8.04981 21.7878 8.04981 23.86C8.04981 24.0932 8.011 24.287 7.98253 24.4292L7.98014 24.4411C7.97735 24.455 7.97467 24.4685 7.9721 24.4816C8.85357 24.984 9.79009 25.4106 10.7292 25.7129C11.3289 24.4608 12.6801 23.6267 14.1165 23.6267C15.6008 23.6267 16.8426 24.503 17.4818 25.7349C18.488 25.4504 19.359 25.0867 20.2132 24.5401C20.2078 24.4998 20.2035 24.4607 20.2001 24.4232C20.1831 24.2362 20.1831 24.0388 20.1831 23.8724V23.86C20.1831 21.7878 21.8443 20.1267 23.9165 20.1267C24.1497 20.1267 24.3434 20.1655 24.4856 20.194L24.4975 20.1963C24.5115 20.1991 24.525 20.2018 24.538 20.2044C25.0403 19.3232 25.4669 18.387 25.7691 17.4481C24.3546 16.819 23.4498 15.5704 23.4498 14.06C23.4498 12.5757 24.3261 11.3339 25.5581 10.6946C25.2735 9.68848 24.9098 8.81747 24.3633 7.9633C24.3229 7.96873 24.2838 7.97296 24.2464 7.97636C24.0593 7.99337 23.8619 7.99335 23.6955 7.99334H23.6831C21.611 7.99334 19.9498 6.33218 19.9498 4.26001C19.9498 4.02679 19.9886 3.83303 20.0171 3.69085L20.0195 3.67894C20.0223 3.66497 20.0249 3.65149 20.0275 3.63844C19.146 3.13602 18.2095 2.70937 17.2704 2.40708Z" fill="white"/>
<path fill-rule="evenodd" clip-rule="evenodd" d="M14.0003 9.39347C11.423 9.39347 9.33366 11.4828 9.33366 14.0601C9.33366 16.6375 11.423 18.7268 14.0003 18.7268C16.5777 18.7268 18.667 16.6375 18.667 14.0601C18.667 11.4828 16.5777 9.39347 14.0003 9.39347ZM8.16699 14.0601C8.16699 10.8385 10.7787 8.22681 14.0003 8.22681C17.222 8.22681 19.8337 10.8385 19.8337 14.0601C19.8337 17.2818 17.222 19.8935 14.0003 19.8935C10.7787 19.8935 8.16699 17.2818 8.16699 14.0601Z" fill="white"/>
</svg>
